<?xml version="1.0" encoding="UTF-8"?>
    <!DOCTYPE svg PUBLIC "-//W3C//DTD SVG 1.1//EN"
      "http://www.w3.org/Graphics/SVG/1.1/DTD/svg11.dtd">
      <svg xmlns="http://www.w3.org/2000/svg" version="1.1" xmlns:xlink="http://www.w3.org/1999/xlink" xmlns:svgjs="http://svgjs.dev/svgjs" width="1024" height="1024" viewBox="0 0 1024 1024" style="position: absolute; left: 50%; top: 50%; transform: translate(-50%, -50%); max-width: 100%; max-height: 100%;"><polygon points="256,742.4 278.1702503368816,780.8 233.82974966311838,780.8" fill="tomato" stroke-width="1" stroke="steelblue"></polygon><polygon points="256,486.4006613014935 278.1702503368816,524.8006613014935 233.82974966311838,524.8006613014935" fill="tomato" stroke-width="1" stroke="steelblue"></polygon><polygon points="256.00000000000006,230.40111412611688 278.1702503368817,268.8011141261169 233.82974966311843,268.8011141261169" fill="tomato" stroke-width="1" stroke="steelblue"></polygon><polygon points="256.00000000000006,363.5203632661726 278.1702503368817,401.9203632661726 233.82974966311843,401.9203632661726" fill="tomato" stroke-width="1" stroke="steelblue"></polygon><polygon points="256.00000000000006,609.2809105221692 278.1702503368817,647.6809105221691 233.82974966311843,647.6809105221691" fill="tomato" stroke-width="1" stroke="steelblue"></polygon><circle cx="767.9999999999999" cy="256" r="25.6" fill="green" stroke-width="1" stroke="steelblue"></circle><circle cx="768" cy="389.1190894750357" r="25.6" fill="green" stroke-width="1" stroke="steelblue"></circle><circle cx="767.9999999999999" cy="767.9988858610742" r="25.6" fill="green" stroke-width="1" stroke="steelblue"></circle><circle cx="768" cy="511.999338692102" r="25.6" fill="green" stroke-width="1" stroke="steelblue"></circle><circle cx="768" cy="634.8796367238137" r="25.6" fill="green" stroke-width="1" stroke="steelblue"></circle><line x1="266.2400000000002" y1="757.7599999999998" x2="749.8980664016243" y2="274.10193359837564" stroke-width="2" stroke="black"></line><line x1="267.42856235526733" y1="759.5428435329003" x2="747.4216648790879" y2="404.3470940603854" stroke-width="2" stroke="black"></line><line x1="270.5454486816242" y1="764.2181730224355" x2="743.2237481074438" y2="641.3214797952188" stroke-width="2" stroke="black"></line><line x1="270.71261771991533" y1="508.46958788136675" x2="743.106902411571" y2="395.0935093174098" stroke-width="2" stroke="black"></line><line x1="276.31742804938096" y1="516.8768033755653" x2="743.1068737650304" y2="628.90533624176" stroke-width="2" stroke="black"></line><line x1="273.0666419083444" y1="256.00107698863354" x2="742.4000000000605" y2="256.00005570630583" stroke-width="2" stroke="black"></line><line x1="276.64509545250314" y1="261.36875730487156" x2="743.2237199658038" y2="382.67735464138326" stroke-width="2" stroke="black"></line><line x1="268.80005570686853" y1="268.8011141261169" x2="749.8980270110484" y2="749.8969916533601" stroke-width="2" stroke="black"></line><line x1="281.59991122860714" y1="268.80098096902753" x2="745.102632150517" y2="500.55073416729357" stroke-width="2" stroke="black"></line><line x1="273.2973647465333" y1="268.8011141261169" x2="747.4216189873232" y2="619.6516941544086" stroke-width="2" stroke="black"></line><line x1="273.0666383602439" y1="389.12032080653836" x2="742.4000000000792" y2="389.11915316459255" stroke-width="2" stroke="black"></line><line x1="273.2973647466606" y1="401.9203632661724" x2="747.4216189872694" y2="752.7709432917416" stroke-width="2" stroke="black"></line><line x1="268.9292697040622" y1="628.6748150782632" x2="744.9210417519328" y2="400.1970715197931" stroke-width="2" stroke="black"></line><line x1="276.64509545217703" y1="640.2485537004353" x2="743.2237199656856" y2="761.5571510278756" stroke-width="2" stroke="black"></line></svg>