<?xml version="1.0" encoding="UTF-8"?>
    <!DOCTYPE svg PUBLIC "-//W3C//DTD SVG 1.1//EN"
      "http://www.w3.org/Graphics/SVG/1.1/DTD/svg11.dtd">
      <svg xmlns="http://www.w3.org/2000/svg" version="1.1" xmlns:xlink="http://www.w3.org/1999/xlink" xmlns:svgjs="http://svgjs.dev/svgjs" width="1024" height="1024" viewBox="0 0 1024 1024" style="position: absolute; left: 50%; top: 50%; transform: translate(-50%, -50%); max-width: 100%; max-height: 100%;"><circle cx="256" cy="511.95042930581167" r="14.222222222222221" fill="white" stroke-width="1" stroke="black"></circle><circle cx="256.00000000000017" cy="686.3355971730617" r="14.222222222222221" fill="white" stroke-width="1" stroke="black"></circle><circle cx="256.0000000000002" cy="337.57080721891805" r="14.222222222222221" fill="white" stroke-width="1" stroke="black"></circle><circle cx="525.1098846475421" cy="425.659058257845" r="14.222222222222221" fill="white" stroke-width="1" stroke="black"></circle><circle cx="525.1098846475421" cy="256" r="14.222222222222221" fill="white" stroke-width="1" stroke="black"></circle><circle cx="525.1098846475421" cy="768" r="14.222222222222221" fill="white" stroke-width="1" stroke="black"></circle><circle cx="525.1098846475421" cy="598.3917903923591" r="14.222222222222221" fill="white" stroke-width="1" stroke="black"></circle><circle cx="768" cy="618.6607690085473" r="14.222222222222221" fill="white" stroke-width="1" stroke="black"></circle><circle cx="768" cy="405.1958541158297" r="14.222222222222221" fill="white" stroke-width="1" stroke="black"></circle><line x1="269.5430114037029" y1="507.6077979540337" x2="511.5668732438392" y2="430.001689609623" stroke-width="2" stroke="black"></line><line x1="266.30544044505456" y1="502.148924208547" x2="514.8044442024875" y2="265.8015050972647" stroke-width="2" stroke="black"></line><line x1="266.3035446972344" y1="521.753927233101" x2="514.8063399503078" y2="758.1965020727107" stroke-width="2" stroke="black"></line><line x1="269.5408152995707" y1="516.299903522448" x2="511.56906934797144" y2="594.0423161757228" stroke-width="2" stroke="black"></line><line x1="266.2154209227837" y1="676.440306358304" x2="514.8944637247586" y2="435.55434907260263" stroke-width="2" stroke="black"></line><line x1="263.5407877276817" y1="674.2770680179649" x2="517.5690969198606" y2="268.0585291550968" stroke-width="2" stroke="black"></line><line x1="269.6093851860009" y1="690.4655172446048" x2="511.5004994615414" y2="763.8700799284569" stroke-width="2" stroke="black"></line><line x1="269.5186664096932" y1="681.9177624724749" x2="511.5912182378491" y2="602.8096250929459" stroke-width="2" stroke="black"></line><line x1="269.51652269948755" y1="341.9951963352272" x2="511.5933619480548" y2="421.23466914153585" stroke-width="2" stroke="black"></line><line x1="269.61069987655077" y1="333.4452219502879" x2="511.4991847709916" y2="260.1255852686302" stroke-width="2" stroke="black"></line><line x1="263.5396088627633" y1="349.6300734957201" x2="517.570275784779" y2="755.9407337231979" stroke-width="2" stroke="black"></line><line x1="266.21268110066256" y1="347.468925710553" x2="514.8972035468797" y2="588.4936719007242" stroke-width="2" stroke="black"></line><line x1="536.2448176212196" y1="434.50693216121755" x2="756.8650670263225" y2="609.8128951051747" stroke-width="2" stroke="black"></line><line x1="539.2819002917958" y1="424.46508274833786" x2="753.8279843557464" y2="406.38982962533686" stroke-width="2" stroke="black"></line><line x1="533.0241169041892" y1="267.81679028865784" x2="760.0857677433529" y2="606.8439787198895" stroke-width="2" stroke="black"></line><line x1="537.2284783317871" y1="263.44387614448607" x2="755.881406315755" y2="397.75197797134365" stroke-width="2" stroke="black"></line><line x1="537.2252877122046" y1="760.5509320368895" x2="755.8845969353375" y2="626.1098369716577" stroke-width="2" stroke="black"></line><line x1="533.0219573728232" y1="756.1817636625368" x2="760.0879272747189" y2="417.0140904532929" stroke-width="2" stroke="black"></line><line x1="539.2828439128751" y1="599.5745120846778" x2="753.827040734667" y2="617.4780473162285" stroke-width="2" stroke="black"></line><line x1="536.2404811108403" y1="589.5384617917996" x2="756.8694035367018" y2="414.0491827163893" stroke-width="2" stroke="black"></line></svg>