<?xml version="1.0" encoding="UTF-8"?>
    <!DOCTYPE svg PUBLIC "-//W3C//DTD SVG 1.1//EN"
      "http://www.w3.org/Graphics/SVG/1.1/DTD/svg11.dtd">
      <svg xmlns="http://www.w3.org/2000/svg" version="1.1" xmlns:xlink="http://www.w3.org/1999/xlink" xmlns:svgjs="http://svgjs.dev/svgjs" width="1024" height="1024" viewBox="0 0 1024 1024" style="position: absolute; left: 50%; top: 50%; transform: translate(-50%, -50%); max-width: 100%; max-height: 100%;"><circle cx="256" cy="482.0370980841084" r="32" fill="white" stroke-width="1" stroke="black"></circle><circle cx="541.930576274947" cy="256" r="32" fill="white" stroke-width="1" stroke="black"></circle><circle cx="482.0697789713089" cy="768" r="32" fill="white" stroke-width="1" stroke="black"></circle><circle cx="768" cy="542.0005074796336" r="32" fill="white" stroke-width="1" stroke="black"></circle><line x1="281.1033295929397" y1="462.192127856158" x2="516.8272466820073" y2="275.8449702279504" stroke-width="2" stroke="black"></line><line x1="275.8453552183189" y1="507.1401233252769" x2="462.22442375299" y2="742.8969747588314" stroke-width="2" stroke="black"></line><line x1="287.7827734529598" y1="485.75937045966515" x2="736.2172265470401" y2="538.2782351040769" stroke-width="2" stroke="black"></line><path d="M224.48615190360934 487.59383976945014C141.83088172586685 526.136625240202 141.83088172586687 437.93757092801485 224.48615190360934 476.4803563987666 " fill="none" stroke-width="2" stroke="black"></path><line x1="538.2145876519602" y1="287.78350875145526" x2="485.78576759429575" y2="736.2164912485448" stroke-width="2" stroke="black"></line><line x1="561.7743063619358" y1="281.10430991353354" x2="748.1562699130112" y2="516.8961975661001" stroke-width="2" stroke="black"></line><path d="M547.4873179602888 224.48615190360934C539.5387142217023 133.63319543764214 622.4187147191602 163.79904863468485 557.930576274947 228.28718707889797 " fill="none" stroke-width="2" stroke="black"></path><path d="M514.217763353845 240C426.12532799628207 216.3957030866501 482.818587294226 148.8313076424502 521.3613727649778 231.4865778201927 " fill="none" stroke-width="2" stroke="black"></path><line x1="507.17470281005274" y1="748.157046614708" x2="742.8950761612562" y2="561.8434608649256" stroke-width="2" stroke="black"></line><path d="M457.55635679150157 788.5692035099693C405.24618579628617 863.2758699491253 361.14665864019264 786.8932483250078 451.9996151061598 778.9446445864214 " fill="none" stroke-width="2" stroke="black"></path><path d="M493.0144235577303 798.0701638651491C545.3245945529457 872.7768303043051 458.46548205795904 888.092435357563 482.0697789713089 800 " fill="none" stroke-width="2" stroke="black"></path><path d="M509.78259189241095 752C574.2707303366241 687.5118615557869 604.4365835336667 770.3918620532446 513.5836270676996 762.4432583146582 " fill="none" stroke-width="2" stroke="black"></path><path d="M788.5692035099693 517.4870852998263C827.1119889807211 434.8318151220838 883.805248278665 502.3962105662837 795.712812921102 526.0005074796336 " fill="none" stroke-width="2" stroke="black"></path><path d="M768 510.0005074796336C744.3957030866501 421.90807212207056 831.2548155816368 437.2236771753285 778.9446445864214 511.9303436144845 " fill="none" stroke-width="2" stroke="black"></path><path d="M784 569.7133204007356C848.4881384442131 634.2014588449488 765.6081379467553 664.3673120419915 773.5567416853418 573.5143555760243 " fill="none" stroke-width="2" stroke="black"></path><path d="M740.287187078898 558.0005074796336C675.7990486346848 622.4886459238467 645.6331954376421 539.608645426389 736.4861519036093 547.5572491649754 " fill="none" stroke-width="2" stroke="black"></path></svg>