<?xml version="1.0" encoding="UTF-8"?>
    <!DOCTYPE svg PUBLIC "-//W3C//DTD SVG 1.1//EN"
      "http://www.w3.org/Graphics/SVG/1.1/DTD/svg11.dtd">
      <svg xmlns="http://www.w3.org/2000/svg" version="1.1" xmlns:xlink="http://www.w3.org/1999/xlink" xmlns:svgjs="http://svgjs.dev/svgjs" width="1024" height="1024" viewBox="0 0 1024 1024" style="position: absolute; left: 50%; top: 50%; transform: translate(-50%, -50%); max-width: 100%; max-height: 100%;"><circle cx="256.0868991200293" cy="256" r="32" fill="white" stroke-width="1" stroke="black"></circle><circle cx="256" cy="767.909700903135" r="32" fill="white" stroke-width="1" stroke="black"></circle><circle cx="767.912375698348" cy="768" r="32" fill="white" stroke-width="1" stroke="black"></circle><circle cx="768" cy="256.090298555245" r="32" fill="white" stroke-width="1" stroke="black"></circle><line x1="256.0814669670617" y1="287.999999538933" x2="256.00543215296756" y2="735.909701364202" stroke-width="2" stroke="black"></line><line x1="278.71045867271164" y1="278.63127378576456" x2="745.2888161456657" y2="745.3687262142354" stroke-width="2" stroke="black"></line><line x1="288.08689862219006" y1="256.00564461764685" x2="736.0000004978392" y2="256.08465393759815" stroke-width="2" stroke="black"></line><path d="M228.37408619892722 240C140.2816508413642 216.3957030866501 196.97491013930824 148.8313076424502 235.51769561006 231.4865778201927 " fill="none" stroke-width="2" stroke="black"></path><line x1="256.00543215296756" y1="735.909701364202" x2="256.0814669670617" y2="287.999999538933" stroke-width="2" stroke="black"></line><line x1="287.9999995021534" y1="767.9153455626351" x2="735.9123761961946" y2="767.9943553404999" stroke-width="2" stroke="black"></line><line x1="278.63140803183035" y1="745.2862756430908" x2="745.3685919681697" y2="278.7137238152892" stroke-width="2" stroke="black"></line><path d="M224.48615190360934 773.4664425884768C141.83088172586685 812.0092280592285 141.83088172586687 723.8101737470414 224.48615190360934 762.3529592177932 " fill="none" stroke-width="2" stroke="black"></path><path d="M261.55674168534176 799.4235489995257C300.0995271560936 882.0788191772681 211.90047284390647 882.0788191772682 250.44325831465824 799.4235489995257 " fill="none" stroke-width="2" stroke="black"></path><line x1="745.2888161456657" y1="745.3687262142354" x2="278.71045867271164" y2="278.63127378576456" stroke-width="2" stroke="black"></line><line x1="735.9123761961946" y1="767.9943553404999" x2="287.9999995021534" y2="767.9153455626351" stroke-width="2" stroke="black"></line><line x1="767.9178531831542" y1="736.0000004687944" x2="767.9945225151938" y2="288.0902980864506" stroke-width="2" stroke="black"></line><path d="M756.9677311119266 798.0701638651491C749.0191273733401 888.9231203311163 672.6365057492227 844.8235931750228 747.3431721883787 792.5134221798073 " fill="none" stroke-width="2" stroke="black"></path><path d="M788.4815792083173 792.5134221798073C863.1882456474733 844.8235931750228 786.8056240233558 888.9231203311163 778.8570202847694 798.0701638651491 " fill="none" stroke-width="2" stroke="black"></path><path d="M788.4815792083173 743.4865778201927C827.0243646790691 660.8313076424502 883.717623977013 728.3957030866501 795.62518861945 752 " fill="none" stroke-width="2" stroke="black"></path><line x1="736.0000004978392" y1="256.08465393759815" x2="288.08689862219006" y2="256.00564461764685" stroke-width="2" stroke="black"></line><line x1="745.3685919681697" y1="278.7137238152892" x2="278.63140803183035" y2="745.2862756430908" stroke-width="2" stroke="black"></line><line x1="767.9945225151938" y1="288.0902980864506" x2="767.9178531831542" y2="736.0000004687944" stroke-width="2" stroke="black"></line><path d="M788.5692035099693 231.5768763754377C827.1119889807211 148.92160619769524 883.805248278665 216.48600164189511 795.712812921102 240.090298555245 " fill="none" stroke-width="2" stroke="black"></path><path d="M762.4432583146582 224.57645045885434C723.9004728439064 141.92118028111184 812.0995271560936 141.92118028111187 773.5567416853418 224.57645045885434 " fill="none" stroke-width="2" stroke="black"></path><path d="M743.4865778201927 235.52109504527573C660.8313076424502 196.97830957452393 728.3957030866501 140.2850502765799 752 228.37748563414294 " fill="none" stroke-width="2" stroke="black"></path><path d="M795.712812921102 272.090298555245C883.805248278665 295.6945954685949 827.1119889807211 363.2589909127948 788.5692035099693 280.6037207350523 " fill="none" stroke-width="2" stroke="black"></path></svg>