<?xml version="1.0" encoding="UTF-8"?>
    <!DOCTYPE svg PUBLIC "-//W3C//DTD SVG 1.1//EN"
      "http://www.w3.org/Graphics/SVG/1.1/DTD/svg11.dtd">
      <svg xmlns="http://www.w3.org/2000/svg" version="1.1" xmlns:xlink="http://www.w3.org/1999/xlink" xmlns:svgjs="http://svgjs.dev/svgjs" width="1024" height="1024" viewBox="0 0 1024 1024" style="position: absolute; left: 50%; top: 50%; transform: translate(-50%, -50%); max-width: 100%; max-height: 100%;"><pattern width="6" height="6" patternUnits="userSpaceOnUse" id="SvgjsPattern1012"><path d="M-1 1L1 -1M0 6L6 0M5 7L7 5 " fill="none" stroke="black" stroke-width="1"></path></pattern><circle cx="256" cy="384.0623068476949" r="21.333333333333332" fill="url(&quot;#SvgjsPattern1012&quot;)" stroke-width="1" stroke="black"></circle><pattern width="6" height="6" patternUnits="userSpaceOnUse" id="SvgjsPattern1013"><path d="M-1 1L1 -1M0 6L6 0M5 7L7 5 " fill="none" stroke="black" stroke-width="1"></path></pattern><circle cx="256.2664409910357" cy="640.0625525419946" r="21.333333333333332" fill="url(&quot;#SvgjsPattern1013&quot;)" stroke-width="1" stroke="black"></circle><pattern width="6" height="6" patternUnits="userSpaceOnUse" id="SvgjsPattern1014"><path d="M-1 1L1 -1M0 6L6 0M5 7L7 5 " fill="none" stroke="black" stroke-width="1"></path></pattern><circle cx="512.2206826382414" cy="768" r="21.333333333333332" fill="url(&quot;#SvgjsPattern1014&quot;)" stroke-width="1" stroke="black"></circle><pattern width="6" height="6" patternUnits="userSpaceOnUse" id="SvgjsPattern1015"><path d="M-1 1L1 -1M0 6L6 0M5 7L7 5 " fill="none" stroke="black" stroke-width="1"></path></pattern><circle cx="511.8710278721877" cy="256" r="21.333333333333332" fill="url(&quot;#SvgjsPattern1015&quot;)" stroke-width="1" stroke="black"></circle><pattern width="6" height="6" patternUnits="userSpaceOnUse" id="SvgjsPattern1016"><path d="M-1 1L1 -1M0 6L6 0M5 7L7 5 " fill="none" stroke="black" stroke-width="1"></path></pattern><circle cx="768" cy="639.8002665225615" r="21.333333333333332" fill="url(&quot;#SvgjsPattern1016&quot;)" stroke-width="1" stroke="black"></circle><pattern width="6" height="6" patternUnits="userSpaceOnUse" id="SvgjsPattern1017"><path d="M-1 1L1 -1M0 6L6 0M5 7L7 5 " fill="none" stroke="black" stroke-width="1"></path></pattern><circle cx="767.9167928563206" cy="383.79992661654853" r="21.333333333333332" fill="url(&quot;#SvgjsPattern1017&quot;)" stroke-width="1" stroke="black"></circle><line x1="256.0222033825844" y1="405.3956286265674" x2="256.24423760845133" y2="618.7292307631221" stroke-width="2" stroke="black"></line><line x1="267.84199314466815" y1="401.80711762360187" x2="500.3786894935733" y2="750.2551892240931" stroke-width="2" stroke="black"></line><line x1="275.07733051937805" y1="374.5141881133306" x2="492.79369735280966" y2="265.5481187343643" stroke-width="2" stroke="black"></line><line x1="275.0850188740248" y1="393.5950486195688" x2="748.9149811259753" y2="630.2675247506877" stroke-width="2" stroke="black"></line><line x1="277.33333053117866" y1="384.0513725625259" x2="746.583462325142" y2="383.81086090171755" stroke-width="2" stroke="black"></line><line x1="275.3487373683546" y1="649.6007429405594" x2="493.1383862609226" y2="758.4618096014352" stroke-width="2" stroke="black"></line><line x1="268.0860479122265" y1="622.3028227202983" x2="500.0514209509969" y2="273.75972982169634" stroke-width="2" stroke="black"></line><line x1="277.5997715222207" y1="640.0516182691728" x2="746.666669468815" y2="639.8112007953833" stroke-width="2" stroke="black"></line><line x1="275.34102659532886" y1="630.5089513814057" x2="748.8422072520275" y2="393.35352777713734" stroke-width="2" stroke="black"></line><line x1="512.2061136930532" y1="746.6666716413743" x2="511.885596817376" y2="277.3333283586258" stroke-width="2" stroke="black"></line><line x1="531.2925389499726" y1="758.4409515151459" x2="748.9281436882688" y2="649.3593150074156" stroke-width="2" stroke="black"></line><line x1="524.0402895367881" y1="750.2402701632334" x2="756.097185957774" y2="401.55965645331514" stroke-width="2" stroke="black"></line><line x1="523.7130210521049" y1="273.74481075238356" x2="756.1580068200828" y2="622.055455770178" stroke-width="2" stroke="black"></line><line x1="530.958785033085" y1="265.5272576157951" x2="748.8290356954234" y2="374.2726690007534" stroke-width="2" stroke="black"></line><line x1="767.9930660809329" y1="618.4669343160853" x2="767.9237267753878" y2="405.1332588230248" stroke-width="2" stroke="black"></line></svg>